<svg xmlns="http://www.w3.org/2000/svg" viewBox="0 0 32 32" preserveAspectRatio="xMidYMid meet"><defs><style>.cls-picto-linkedin{fill:#ffffff;}</style></defs><title>picto_linkedin_dark</title><g id="Calque_2" data-name="Calque 2"><g id="Calque_1-2" data-name="Calque 1"><path id="Fill-1" class="cls-picto-linkedin" d="M7.76,3.88A3.82,3.82,0,0,0,3.88,0,3.82,3.82,0,0,0,0,3.88,3.82,3.82,0,0,0,3.88,7.76,3.82,3.82,0,0,0,7.76,3.88ZM24.34,9.7C28,9.7,32,12,32,18.58V32H25.4V20.15c0-3.5-1.43-4.57-3.29-4.57s-3.88,1.52-3.88,4.66V32H11.64V10.31H18v3h.09A7.17,7.17,0,0,1,24.34,9.7ZM6.79,32H0V10.67H6.79Z"/></g></g></svg>