<svg width="131" height="38" viewBox="0 0 131 38" version="1.1" xmlns="http://www.w3.org/2000/svg">
  <path d="M7.43894 2.03684C9.05805 2.03684 10.4655 2.8072 11.468 3.96119L12.9595 2.64857C11.6579 1.01842 9.69637 0 7.43894 0C3.28192 0 0 3.57446 0 8.01153C0 12.4258 3.28192 16 7.43894 16C9.71808 16 11.7016 14.9582 13 13.305L11.5086 11.9727C10.5278 13.1928 9.07976 13.9632 7.43894 13.9632C4.36865 13.9632 1.98356 11.3146 1.98356 8.01153C1.98356 4.70848 4.36865 2.03684 7.43894 2.03684" transform="translate(8 17)" id="Fill-1" fill="#FFFFFF" stroke="none" />
  <path d="M0 0.0236348L0 10L2.06717 10L2.06717 4.20003C2.09709 3.91367 2.18318 3.6415 2.32261 3.38127C2.58482 2.90136 3.03613 2.4717 3.62348 2.16171C4.21056 1.85446 4.93085 1.66712 5.7138 1.66712C6.28112 1.66712 6.81202 1.7639 7.28648 1.93357L8 0.389352C7.30003 0.137579 6.52695 0 5.7138 0C4.33023 0 3.0525 0.403782 2.06717 1.08546L2.06717 0.0236348L0 0.0236348Z" transform="translate(27 22)" id="Fill-11" fill="#FFFFFF" stroke="none" />
  <path d="M9 9.97661L9 0L7.04293 0L7.04293 5.8557C6.98014 6.52519 6.68807 7.11904 6.25759 7.55492C6.01577 7.80047 5.73305 7.99353 5.42202 8.12788C5.11098 8.25973 4.77804 8.33288 4.42318 8.33288C4.06805 8.33288 3.7351 8.25973 3.42407 8.12788C2.96232 7.92934 2.55375 7.58701 2.25848 7.1484C1.96642 6.70656 1.79059 6.17141 1.79059 5.58353L1.79059 0L0 0L0 5.58353C0 6.7797 0.477242 7.8766 1.26899 8.68093C1.66474 9.08148 2.14225 9.41187 2.6764 9.64001C3.2103 9.87113 3.80431 10 4.42318 10C5.04177 10 5.63873 9.87113 6.17262 9.64001C6.48366 9.5084 6.77599 9.33897 7.04293 9.14293L7.04293 9.97661L9 9.97661Z" transform="translate(39 22)" id="Fill-9" fill="#FFFFFF" stroke="none" />
  <path d="M4.395 8.3372C3.7201 8.37836 3.17681 8.25513 2.72902 8.00893C2.23195 7.78293 1.93902 7.33144 1.86985 6.92085L0 6.92085C0.0688907 8.89147 2.02779 10 3.92089 10C6.10691 10 8 8.91217 8 7.12614C8 6.03807 7.46008 4.82402 5.27406 4.33436L3.7201 3.98239C3.17681 3.83871 2.6831 3.63367 2.47894 3.24353C2.36693 3.01779 2.36693 2.79204 2.45598 2.48397C2.61393 1.97086 3.26895 1.62164 4.03291 1.62164C4.84587 1.62164 5.56698 1.99132 5.679 2.70972L7.6379 2.70972C7.46008 0.75956 5.76777 0 3.99006 0C2.11993 0 0.497077 1.04692 0.338853 2.44281C0.157944 4.20814 1.24087 5.09392 3.15721 5.56612L4.59915 5.87393C5.36283 6.03807 6.01813 6.38729 5.99489 7.08499C5.97193 7.78293 5.33987 8.27559 4.395 8.3372" transform="translate(55 22)" id="Fill-3" fill="#FFFFFF" stroke="none" />
  <path d="M3.50803 16L3.50803 6.72325L6 6.72325L6 5.02648L3.50803 5.02648L3.50803 0L1.36964 0L1.36964 5.02648L0 5.02648L0 6.72325L1.36964 6.72325L1.36964 16L3.50803 16Z" transform="translate(68 16)" id="Fill-6" fill="#FFFFFF" stroke="none" />
  <path d="M10 0L10 9.97636L8.20666 9.97636L8.20666 8.71896C7.33741 9.51436 6.18022 10 4.9192 10C3.56342 10 2.3286 9.43822 1.44197 8.53436C0.5524 7.63373 0 6.37608 0 4.99826C0 3.62069 0.5524 2.36602 1.44197 1.46514C2.3286 0.561278 3.56342 0 4.9192 0C6.18022 0 7.33741 0.485396 8.20666 1.2778L8.20666 0L10 0ZM4.91927 8.33291C5.82917 8.32993 6.64356 7.96146 7.23955 7.3559C7.83553 6.75034 8.19817 5.9226 8.20111 4.99834C8.19817 4.07705 7.83553 3.24932 7.23955 2.644C6.64356 2.03844 5.82917 1.66699 4.91927 1.66699C4.01256 1.66699 3.19817 2.03844 2.60243 2.644C2.00644 3.24932 1.64087 4.07705 1.64087 4.99834C1.64087 5.9226 2.00644 6.75034 2.60243 7.3559C3.19817 7.96146 4.01256 8.32993 4.91927 8.33291Z" transform="translate(80 22)" id="Fill-7" fill="#FFFFFF" fill-rule="evenodd" stroke="none" />
  <path d="M129.972 10.247L129.9 7.0874L129.813 3.93128L129.682 0L129.589 0L129.52 0L97.6893 0L97.6893 24.8441L17.3002 24.8441C4.47302 24.8441 0 26 0 26L116.058 26C116.326 25.9938 116.603 25.9845 116.874 25.9719C117.967 25.9025 119.051 25.7042 120.098 25.3859C120.621 25.2283 121.132 25.03 121.636 24.8189C122.132 24.592 122.624 24.3462 123.091 24.063C124.029 23.5022 124.91 22.8471 125.692 22.0848C126.477 21.3222 127.172 20.472 127.764 19.5554C128.935 17.7157 129.689 15.6115 129.916 13.4538L129.96 13.0476L129.981 12.6411C130.003 12.3734 130 12.099 130 11.8314C130 11.2928 129.981 10.773 129.972 10.247" transform="translate(1 12)" id="Fill-15" fill="#FFFFFF" stroke="none" />
  <path d="M1.38694 36.6415L1.38694 36.6415L1.38694 36.6383L1.39949 36.6037C2.36922 33.6062 0.988422 26.5806 0.721765 23.8099C0.589904 22.4608 0.643289 21.2822 0.931834 20.1505C1.08238 19.6051 1.27403 19.0727 1.50626 18.5587C1.52494 18.5209 1.54069 18.4831 1.55937 18.4453C1.58767 18.3884 1.61276 18.3351 1.64105 18.2782C1.92052 17.7265 2.26245 17.1656 2.67672 16.5854C2.99676 16.1569 3.35124 15.7502 3.74042 15.3754C4.67866 14.4737 5.7864 13.7332 7.00704 13.2225C7.6191 12.967 8.24958 12.7559 8.89607 12.6015C9.54576 12.45 10.2048 12.3369 10.8732 12.28C11.5384 12.2264 12.2099 12.198 12.8847 12.2296C13.2173 12.2361 13.5624 12.2674 13.9044 12.2862L14.9336 12.3524L16.9922 12.5195L19.0539 12.7023L27.3101 13.4147C32.8203 13.8654 38.3432 14.2373 43.8755 14.4359C44.569 14.4676 45.2595 14.4831 45.953 14.4989L48.0304 14.5526C49.4142 14.5778 50.8011 14.581 52.1851 14.5839C53.5689 14.5652 54.9558 14.5496 56.3398 14.5177L58.417 14.4421L59.4559 14.4046L59.9767 14.3855L60.4945 14.3539L62.572 14.2311C63.2622 14.1901 63.9557 14.1491 64.646 14.0893L65.6816 14.0072L66.7141 13.9158C67.4044 13.856 68.0949 13.7866 68.7852 13.7142C71.5404 13.4241 74.2892 13.0745 77.0193 12.6015C79.7494 12.1256 82.4605 11.5674 85.1405 10.8743C87.8204 10.1904 90.4656 9.37399 93.0481 8.40611C94.3379 7.92404 95.6058 7.3787 96.8515 6.79878C98.1005 6.21858 99.315 5.58208 100.501 4.89491C101.684 4.20479 102.83 3.46079 103.924 2.65082C105.014 1.83737 106.046 0.954746 107 0C106.005 0.913993 104.932 1.74621 103.815 2.51516C102.701 3.28437 101.537 3.98709 100.341 4.63324C97.9496 5.93519 95.4141 6.97841 92.8412 7.89562C90.2617 8.80666 87.6258 9.56301 84.9523 10.1904C82.2849 10.8237 79.5799 11.3283 76.8655 11.7473C74.1512 12.1728 71.4211 12.5195 68.6816 12.7844C67.9975 12.8506 67.3102 12.9168 66.6263 12.9704L65.597 13.0554L64.5678 13.1278C63.8804 13.1847 63.1931 13.2195 62.506 13.2541L60.4443 13.3643L59.9265 13.3895L59.4118 13.4053L58.3794 13.4367L56.3147 13.4967C54.9371 13.5187 53.5595 13.5249 52.1819 13.5375L48.0491 13.5029L45.9813 13.4587C45.2939 13.4461 44.6037 13.4335 43.9163 13.4053C38.403 13.2318 32.8987 12.8884 27.3948 12.4597L19.1385 11.7883L17.0677 11.6339L14.9964 11.4953L13.9546 11.4446C13.6062 11.4291 13.2675 11.4036 12.9095 11.4004C12.2006 11.3784 11.4914 11.4197 10.7851 11.4856C10.0823 11.558 9.38267 11.6875 8.69214 11.8578C8.00481 12.0342 7.33349 12.2707 6.687 12.5508C5.39108 13.1184 4.21421 13.9284 3.23219 14.9057C2.24671 15.8827 1.47156 17.0457 0.925695 18.2876C0.652631 18.9086 0.439358 19.555 0.282406 20.2105C0.128658 20.8658 0.0408395 21.5374 0.00934237 22.2055C0.00613927 22.3538 0.00293617 22.5018 0 22.6469C0.0910214 25.6001 0.91315 28.2796 1.2113 32.645C1.44647 36.0677 1.18301 36.7897 0.238364 38C0.859765 37.6818 1.2081 37.2152 1.38694 36.6415" id="Fill-17" fill="#FFFFFF" stroke="none" />
  <path d="M7.43867 16C9.71782 16 11.7016 14.9583 13 13.3084L11.5083 11.9728C10.5275 13.1928 9.0795 13.9632 7.43867 13.9632C4.36865 13.9632 1.98329 11.3147 1.98329 8.01167C1.98329 4.70868 4.36865 2.03709 7.43867 2.03709C9.05778 2.03709 10.4655 2.80743 11.4649 3.96112L12.9595 2.64853C11.6579 1.0184 9.69928 0 7.43867 0C3.28192 0 0 3.5744 0 8.01167C0 12.4222 3.28192 16 7.43867 16" transform="translate(108 17)" id="Fill-13" fill="#E20953" stroke="none" />
</svg>