<svg width="131" height="38" viewBox="0 0 131 38" fill="none" xmlns="http://www.w3.org/2000/svg">
<path fill-rule="evenodd" clip-rule="evenodd" d="M15.4389 19.0368C17.058 19.0368 18.4655 19.8072 19.468 20.9612L20.9595 19.6486C19.6579 18.0184 17.6964 17 15.4389 17C11.2819 17 8 20.5745 8 25.0115C8 29.4258 11.2819 33 15.4389 33C17.7181 33 19.7016 31.9582 21 30.305L19.5086 28.9727C18.5278 30.1928 17.0798 30.9632 15.4389 30.9632C12.3686 30.9632 9.98356 28.3146 9.98356 25.0115C9.98356 21.7085 12.3686 19.0368 15.4389 19.0368Z" fill="#023646"/>
<path fill-rule="evenodd" clip-rule="evenodd" d="M27 22.0236V32H29.0672V26.2C29.0971 25.9137 29.1832 25.6415 29.3226 25.3813C29.5848 24.9014 30.0361 24.4717 30.6235 24.1617C31.2106 23.8545 31.9308 23.6671 32.7138 23.6671C33.2811 23.6671 33.812 23.7639 34.2865 23.9336L35 22.3894C34.3 22.1376 33.527 22 32.7138 22C31.3302 22 30.0525 22.4038 29.0672 23.0855V22.0236H27Z" fill="#023646"/>
<path fill-rule="evenodd" clip-rule="evenodd" d="M48 31.9766V22H46.0429V27.8557C45.9801 28.5252 45.6881 29.119 45.2576 29.5549C45.0158 29.8005 44.7331 29.9935 44.422 30.1279C44.111 30.2597 43.778 30.3329 43.4232 30.3329C43.0681 30.3329 42.7351 30.2597 42.4241 30.1279C41.9623 29.9293 41.5538 29.587 41.2585 29.1484C40.9664 28.7066 40.7906 28.1714 40.7906 27.5835V22H39V27.5835C39 28.7797 39.4772 29.8766 40.269 30.6809C40.6647 31.0815 41.1422 31.4119 41.6764 31.64C42.2103 31.8711 42.8043 32 43.4232 32C44.0418 32 44.6387 31.8711 45.1726 31.64C45.4837 31.5084 45.776 31.339 46.0429 31.1429V31.9766H48Z" fill="#023646"/>
<path fill-rule="evenodd" clip-rule="evenodd" d="M59.395 30.3372C58.7201 30.3784 58.1768 30.2551 57.729 30.0089C57.2319 29.7829 56.939 29.3314 56.8698 28.9209H55C55.0689 30.8915 57.0278 32 58.9209 32C61.1069 32 63 30.9122 63 29.1261C63 28.0381 62.4601 26.824 60.2741 26.3344L58.7201 25.9824C58.1768 25.8387 57.6831 25.6337 57.4789 25.2435C57.3669 25.0178 57.3669 24.792 57.456 24.484C57.6139 23.9709 58.2689 23.6216 59.0329 23.6216C59.8459 23.6216 60.567 23.9913 60.679 24.7097H62.6379C62.4601 22.7596 60.7678 22 58.9901 22C57.1199 22 55.4971 23.0469 55.3389 24.4428C55.1579 26.2081 56.2409 27.0939 58.1572 27.5661L59.5992 27.8739C60.3628 28.0381 61.0181 28.3873 60.9949 29.085C60.9719 29.7829 60.3399 30.2756 59.395 30.3372Z" fill="#023646"/>
<path fill-rule="evenodd" clip-rule="evenodd" d="M71.508 32V22.7232H74V21.0265H71.508V16H69.3696V21.0265H68V22.7232H69.3696V32H71.508Z" fill="#023646"/>
<path fill-rule="evenodd" clip-rule="evenodd" d="M87.2395 29.3558C86.6435 29.9614 85.8291 30.3299 84.9192 30.3328C84.0125 30.3299 83.1981 29.9614 82.6024 29.3558C82.0064 28.7503 81.6408 27.9225 81.6408 26.9983C81.6408 26.077 82.0064 25.2492 82.6024 24.6439C83.1981 24.0384 84.0125 23.6669 84.9192 23.6669C85.8291 23.6669 86.6435 24.0384 87.2395 24.6439C87.8355 25.2492 88.1981 26.077 88.201 26.9983C88.1981 27.9225 87.8355 28.7503 87.2395 29.3558ZM90 31.9764V22H88.2067V23.2778C87.3374 22.4854 86.1802 22 84.9192 22C83.5634 22 82.3286 22.5613 81.442 23.4651C80.5524 24.366 80 25.6207 80 26.9983C80 28.3761 80.5524 29.6337 81.442 30.5344C82.3286 31.4382 83.5634 32 84.9192 32C86.1802 32 87.3374 31.5144 88.2067 30.719V31.9764H90Z" fill="#023646"/>
<path fill-rule="evenodd" clip-rule="evenodd" d="M130.972 22.247L130.9 19.0874L130.813 15.9313L130.682 12H130.589H130.52H98.6893V36.8441H18.3002C5.47302 36.8441 1 38 1 38H117.058C117.326 37.9938 117.603 37.9845 117.874 37.9719C118.967 37.9025 120.051 37.7042 121.098 37.3859C121.621 37.2283 122.132 37.03 122.636 36.8189C123.132 36.592 123.624 36.3462 124.091 36.063C125.029 35.5022 125.91 34.8471 126.692 34.0848C127.477 33.3222 128.172 32.472 128.764 31.5554C129.935 29.7157 130.689 27.6115 130.916 25.4538L130.96 25.0476L130.981 24.6411C131.003 24.3734 131 24.099 131 23.8314C131 23.2928 130.981 22.773 130.972 22.247Z" fill="#023646"/>
<path fill-rule="evenodd" clip-rule="evenodd" d="M1.38694 36.6415V36.6383L1.39949 36.6037C2.36922 33.6062 0.988423 26.5806 0.721765 23.8099C0.589904 22.4608 0.643289 21.2822 0.931834 20.1505C1.08238 19.6051 1.27403 19.0727 1.50626 18.5587C1.52494 18.5209 1.54069 18.4831 1.55937 18.4453C1.58767 18.3884 1.61276 18.3351 1.64105 18.2782C1.92052 17.7265 2.26245 17.1656 2.67672 16.5854C2.99676 16.1569 3.35124 15.7502 3.74042 15.3754C4.67866 14.4737 5.7864 13.7332 7.00704 13.2225C7.6191 12.967 8.24958 12.7559 8.89607 12.6015C9.54576 12.45 10.2048 12.3369 10.8732 12.28C11.5384 12.2264 12.2099 12.198 12.8847 12.2296C13.2173 12.2361 13.5624 12.2674 13.9044 12.2862L14.9336 12.3524L16.9922 12.5195L19.0539 12.7023L27.3101 13.4147C32.8203 13.8654 38.3432 14.2373 43.8755 14.4359C44.569 14.4676 45.2595 14.4831 45.953 14.4989L48.0304 14.5526C49.4142 14.5778 50.8011 14.581 52.1851 14.5839C53.5689 14.5652 54.9558 14.5496 56.3398 14.5177L58.417 14.4421L59.4559 14.4046L59.9767 14.3855L60.4945 14.3539L62.572 14.2311C63.2622 14.1901 63.9557 14.1491 64.646 14.0893L65.6816 14.0072L66.7141 13.9158C67.4044 13.856 68.0949 13.7866 68.7852 13.7142C71.5404 13.4241 74.2892 13.0745 77.0193 12.6015C79.7494 12.1256 82.4605 11.5674 85.1405 10.8743C87.8204 10.1904 90.4656 9.37399 93.0481 8.4061C94.3379 7.92404 95.6058 7.3787 96.8515 6.79878C98.1005 6.21858 99.315 5.58208 100.501 4.89491C101.684 4.20479 102.83 3.46079 103.924 2.65082C105.014 1.83737 106.046 0.954746 107 0C106.005 0.913993 104.932 1.74621 103.815 2.51516C102.701 3.28437 101.537 3.98709 100.341 4.63324C97.9496 5.93519 95.4141 6.97841 92.8412 7.89562C90.2617 8.80666 87.6258 9.56301 84.9523 10.1904C82.2849 10.8237 79.5799 11.3283 76.8655 11.7473C74.1512 12.1728 71.4211 12.5195 68.6816 12.7844C67.9975 12.8506 67.3102 12.9168 66.6263 12.9704L65.597 13.0554L64.5678 13.1278C63.8804 13.1847 63.1931 13.2195 62.506 13.2541L60.4443 13.3643L59.9265 13.3895L59.4118 13.4053L58.3794 13.4367L56.3147 13.4967C54.9371 13.5187 53.5595 13.5249 52.1819 13.5375L48.0491 13.5029L45.9813 13.4587C45.2939 13.4461 44.6037 13.4335 43.9163 13.4053C38.403 13.2318 32.8987 12.8884 27.3948 12.4597L19.1385 11.7883L17.0677 11.6339L14.9964 11.4953L13.9546 11.4446C13.6062 11.4291 13.2675 11.4036 12.9095 11.4004C12.2006 11.3784 11.4914 11.4197 10.7851 11.4856C10.0823 11.558 9.38267 11.6875 8.69214 11.8578C8.00481 12.0342 7.33349 12.2707 6.687 12.5508C5.39108 13.1184 4.21421 13.9284 3.23219 14.9057C2.24671 15.8827 1.47156 17.0457 0.925695 18.2876C0.652631 18.9086 0.439358 19.555 0.282406 20.2105C0.128658 20.8658 0.0408395 21.5374 0.00934237 22.2055C0.00613927 22.3538 0.00293617 22.5018 0 22.6469C0.0910214 25.6001 0.91315 28.2796 1.2113 32.645C1.44647 36.0677 1.18301 36.7897 0.238364 38C0.859765 37.6818 1.2081 37.2152 1.38694 36.6415Z" fill="#023646"/>
<path fill-rule="evenodd" clip-rule="evenodd" d="M115.439 33C117.718 33 119.702 31.9583 121 30.3084L119.508 28.9728C118.528 30.1928 117.079 30.9632 115.439 30.9632C112.369 30.9632 109.983 28.3147 109.983 25.0117C109.983 21.7087 112.369 19.0371 115.439 19.0371C117.058 19.0371 118.466 19.8074 119.465 20.9611L120.959 19.6485C119.658 18.0184 117.699 17 115.439 17C111.282 17 108 20.5744 108 25.0117C108 29.4222 111.282 33 115.439 33Z" fill="#E20953"/>
</svg>
